<?xml version="1.0" encoding="UTF-8" standalone="no"?>
<!-- Created with Inkscape (http://www.inkscape.org/) -->

<svg
   xmlns:dc="http://purl.org/dc/elements/1.1/"
   xmlns:cc="http://creativecommons.org/ns#"
   xmlns:rdf="http://www.w3.org/1999/02/22-rdf-syntax-ns#"
   xmlns:svg="http://www.w3.org/2000/svg"
   xmlns="http://www.w3.org/2000/svg"
   xmlns:sodipodi="http://sodipodi.sourceforge.net/DTD/sodipodi-0.dtd"
   xmlns:inkscape="http://www.inkscape.org/namespaces/inkscape"
   id="svg8"
   version="1.1"
   viewBox="0 0 49.265415 52.916668"
   height="200"
   width="186.2"
   inkscape:version="0.92.1 r15371"
   sodipodi:docname="angular-electron-primeng.svg">
  <defs
     id="defs2" />
  <sodipodi:namedview
     inkscape:window-maximized="1"
     inkscape:window-y="-8"
     inkscape:window-x="-8"
     inkscape:window-height="1017"
     inkscape:window-width="1920"
     showgrid="false"
     inkscape:current-layer="layer1"
     inkscape:document-units="mm"
     inkscape:cy="155.08637"
     inkscape:cx="132.72503"
     inkscape:zoom="3.959798"
     inkscape:pageshadow="2"
     inkscape:pageopacity="0.0"
     borderopacity="1.0"
     bordercolor="#666666"
     pagecolor="#ffffff"
     id="base"
     inkscape:object-nodes="false"
     units="px" />
  <metadata
     id="metadata5">
    <rdf:RDF>
      <cc:Work
         rdf:about="">
        <dc:format>image/svg+xml</dc:format>
        <dc:type
           rdf:resource="http://purl.org/dc/dcmitype/StillImage" />
        <dc:title />
      </cc:Work>
    </rdf:RDF>
  </metadata>
  <g
     inkscape:label="Layer 1"
     inkscape:groupmode="layer"
     id="layer1"
     transform="translate(0,-244.08332)">
    <g
       id="g4825"
       transform="translate(-28.09497,151.00149)">
      <polygon
         transform="matrix(0.26458333,0,0,0.26458333,19.654762,85.144346)"
         id="polygon3741"
         points="218.1,63.2 125,30 31.9,63.2 46.1,186.3 125,230 203.9,186.3 "
         class="st0"
         style="fill:#dd0031" />
      <polygon
         transform="matrix(0.26458333,0,0,0.26458333,19.654762,85.144346)"
         id="polygon3743"
         points="218.1,63.2 125,30 125,52.2 125,52.1 125,153.4 125,230 203.9,186.3 "
         class="st1"
         style="fill:#c3002f" />
    </g>
    <path
       style="fill:#ffffff;fill-opacity:0.68627451;stroke-width:0.12503259"
       inkscape:connector-curvature="0"
       class="st2"
       d="m 13.880845,250.27293 -7.2768977,16.31676 v 0 h 2.713208 v 0 l 1.4628817,-3.65096 h 6.17661 l 1.462882,3.65096 v 0 h 2.713208 v 0 z m 2.125554,10.41521 h -4.251107 l 2.125553,-5.11383 z"
       id="path3745" />
    <g
       transform="matrix(0.1223529,0,0,0.1223529,28.97885,270.33705)"
       id="face"
       style="fill:#ffffff;fill-opacity:0.68627451;fill-rule:evenodd;stroke:none;stroke-width:1">
      <polygon
         points="6.819,44.903 0.673,18.984 32.881,25.428 47.417,60.036 "
         id="polygon4698"
         style="fill:#ffffff;fill-opacity:0.68627451" />
      <polygon
         points="107.802,44.903 113.955,18.984 81.729,25.428 67.199,60.036 "
         id="polygon4700"
         style="fill:#ffffff;fill-opacity:0.68627451" />
      <polygon
         points="13.55,18.984 27.485,0.553 45.018,0.553 34.083,23.031 "
         id="polygon4702"
         style="fill:#ffffff;fill-opacity:0.68627451" />
      <polygon
         points="100.76,18.984 86.824,0.553 69.298,0.553 80.238,23.031 "
         id="polygon4704"
         style="fill:#ffffff;fill-opacity:0.68627451" />
      <polygon
         points="63.376,65.659 67.719,94.394 46.146,94.394 51.037,65.618 36.478,27.799 45.914,0.553 68.245,0.553 77.891,27.799 "
         id="polygon4706"
         style="fill:#ffffff;fill-opacity:0.68627451" />
      <polygon
         points="31.007,71.502 31.007,101.691 7.641,81.69 7.641,47.898 16.776,51.645 16.776,63.855 "
         id="polygon4708"
         style="fill:#ffffff;fill-opacity:0.68627451" />
      <polygon
         points="83.152,71.502 83.152,101.691 106.536,81.69 106.536,47.898 97.388,51.645 97.388,63.855 "
         id="polygon4710"
         style="fill:#ffffff;fill-opacity:0.68627451" />
      <polygon
         points="42.104,110.851 57.189,110.689 72.27,110.851 79.85,117.819 79.85,72.927 72.519,60.562 67.199,63.334 67.199,68.547 70.529,96.245 63.394,103.495 57.189,103.542 50.974,103.495 43.838,96.245 47.169,68.547 47.169,63.334 41.86,60.562 34.505,72.927 34.505,117.819 "
         id="polygon4712"
         style="fill:#ffffff;fill-opacity:0.68627451" />
      <polygon
         points="47.186,133.911 40.23,126.753 47.186,119.6 67.048,119.6 74.224,126.753 67.048,133.911 "
         id="polygon4714"
         style="fill:#ffffff;fill-opacity:0.68627451" />
      <polygon
         points="18.043,105.218 18.043,95.4 31.007,103.865 31.007,119.6 "
         id="polygon4716"
         style="fill:#ffffff;fill-opacity:0.68627451" />
      <polygon
         points="95.741,105.218 95.741,95.4 82.788,103.865 82.788,119.6 "
         id="polygon4718"
         style="fill:#ffffff;fill-opacity:0.68627451" />
      <polygon
         points="43.728,117.819 38.391,125.128 34.505,123.11 43.601,113.984 70.865,113.984 79.85,123.11 76.04,125.128 70.639,117.819 "
         id="polygon4720"
         style="fill:#ffffff;fill-opacity:0.68627451" />
    </g>
    <g
       id="g4787"
       transform="matrix(0.10928832,0,0,0.10928832,6.321984,270.40471)"
       style="fill:#ffffff;fill-opacity:0.68627451">
      <path
         id="path4779"
         d="M 48.8,32.2 C 29.3,28.6 13.9,32.4 7.7,43 c -4.6,7.9 -3.3,18.5 3.2,29.7 0.5,1 1.8,1.3 2.7,0.7 1,-0.5 1.3,-1.8 0.7,-2.7 C 8.5,60.6 7.4,51.5 11.1,45 16.2,36.2 30,32.8 48,36.1 c 1.1,0.2 2.1,-0.5 2.3,-1.6 0.2,-1.1 -0.4,-2.1 -1.5,-2.3 z M 21.1,86.4 c 7.9,8.7 18.1,16.8 29.8,23.5 28.3,16.3 58.4,20.7 73.3,10.6 0.9,-0.6 1.1,-1.9 0.5,-2.8 -0.6,-0.9 -1.9,-1.1 -2.8,-0.5 -13.3,9.1 -41.9,4.9 -69,-10.7 C 41.6,100 31.6,92.1 24,83.7 c -0.7,-0.8 -2,-0.9 -2.8,-0.1 -0.8,0.7 -0.9,2 -0.1,2.8 z"
         inkscape:connector-curvature="0"
         style="fill:#ffffff;fill-opacity:0.68627451" />
      <path
         id="path4781"
         d="M 119.4,84 C 132.2,68.9 136.6,53.7 130.5,43.1 126,35.3 116.4,31.2 103.8,31 c -1.1,0 -2,0.9 -2,2 0,1.1 0.9,2 2,2 11.4,0.1 19.6,3.7 23.3,10.1 5.1,8.8 1.1,22.4 -10.7,36.3 -0.7,0.8 -0.6,2.1 0.2,2.8 0.8,0.7 2.1,0.6 2.8,-0.2 z M 86.6,32.8 C 75.1,35.3 62.8,40.1 51,46.9 21.7,63.8 2.7,88.7 5.3,106.7 c 0.2,1.1 1.2,1.8 2.3,1.7 1.1,-0.2 1.8,-1.2 1.7,-2.3 C 6.9,90.1 25,66.6 53,50.4 64.5,43.8 76.4,39.1 87.5,36.7 c 1.1,-0.2 1.8,-1.3 1.5,-2.4 -0.3,-1 -1.3,-1.7 -2.4,-1.5 z"
         inkscape:connector-curvature="0"
         style="fill:#ffffff;fill-opacity:0.68627451" />
      <path
         id="path4783"
         d="m 39.3,119.2 c 6.7,18.6 17.6,30.1 29.9,30.1 9,0 17.2,-6.1 23.7,-16.9 0.6,-0.9 0.3,-2.2 -0.7,-2.7 -0.9,-0.6 -2.2,-0.3 -2.7,0.7 -5.8,9.7 -12.9,14.9 -20.3,14.9 -10.2,0 -19.9,-10.2 -26.1,-27.5 -0.4,-1 -1.5,-1.6 -2.6,-1.2 -1.1,0.4 -1.6,1.6 -1.2,2.6 z m 61,-3.6 c 3.5,-11 5.3,-23.8 5.3,-37.1 0,-33.1 -11.6,-61.7 -28.1,-69 -1,-0.4 -2.2,0 -2.6,1 -0.4,1 0,2.2 1,2.6 14.7,6.5 25.7,33.6 25.7,65.4 0,12.9 -1.8,25.2 -5.1,35.9 -0.3,1.1 0.3,2.2 1.3,2.5 1,0.3 2.1,-0.3 2.5,-1.3 z m 37.6,-2 c 0,-5.3 -4.3,-9.6 -9.6,-9.6 -5.3,0 -9.6,4.3 -9.6,9.6 0,5.3 4.3,9.6 9.6,9.6 5.4,0 9.6,-4.3 9.6,-9.6 z m -4,0 c 0,3.1 -2.5,5.6 -5.6,5.6 -3.1,0 -5.6,-2.5 -5.6,-5.6 0,-3.1 2.5,-5.6 5.6,-5.6 3.1,0 5.6,2.5 5.6,5.6 z M 9.8,123.2 c 5.3,0 9.6,-4.3 9.6,-9.6 0,-5.3 -4.3,-9.6 -9.6,-9.6 -5.3,0 -9.6,4.3 -9.6,9.6 0,5.3 4.3,9.6 9.6,9.6 z m 0,-4 c -3.1,0 -5.6,-2.5 -5.6,-5.6 0,-3.1 2.5,-5.6 5.6,-5.6 3.1,0 5.6,2.5 5.6,5.6 0,3.1 -2.5,5.6 -5.6,5.6 z"
         inkscape:connector-curvature="0"
         style="fill:#ffffff;fill-opacity:0.68627451" />
      <path
         id="path4785"
         d="m 69.2,19.2 c 5.3,0 9.6,-4.3 9.6,-9.6 0,-5.3 -4.3,-9.6 -9.6,-9.6 -5.3,0 -9.6,4.3 -9.6,9.6 0,5.3 4.3,9.6 9.6,9.6 z m 0,-4 c -3.1,0 -5.6,-2.5 -5.6,-5.6 0,-3.1 2.5,-5.6 5.6,-5.6 3.1,0 5.6,2.5 5.6,5.6 0,3.1 -2.6,5.6 -5.6,5.6 z m 1.4,70.1 c -3.7,0.8 -7.4,-1.6 -8.2,-5.3 -0.8,-3.7 1.6,-7.4 5.3,-8.2 3.7,-0.8 7.4,1.6 8.2,5.3 0.8,3.7 -1.5,7.4 -5.3,8.2 z"
         inkscape:connector-curvature="0"
         style="fill:#ffffff;fill-opacity:0.68627451" />
    </g>
    <path
       style="opacity:1;fill:#ffffff;fill-opacity:0.68627451;stroke:none;stroke-width:0.14574708;stroke-linecap:square;stroke-linejoin:miter;stroke-miterlimit:4;stroke-dasharray:none;stroke-dashoffset:0;stroke-opacity:1;paint-order:fill markers stroke"
       d="m 35.500404,250.27281 5.093127,5.1451 -3.040285,3.0143 4.048231,4.09358 -6.091802,4.06402 -5.128384,-5.09133 0.995236,-7.14243 z"
       id="rect4881"
       inkscape:connector-curvature="0"
       sodipodi:nodetypes="cccccccc" />
  </g>
  <style
     id="style3739"
     type="text/css">
	.st0{fill:#DD0031;}
	.st1{fill:#C3002F;}
	.st2{fill:#FFFFFF;}
</style>
</svg>
