<svg xmlns="http://www.w3.org/2000/svg" width="186.2" height="200" viewBox="0 0 188 200" id="svg4558">
  <path d="M94 0L0.9 33.199 15.1 156.301 94 200 172.9 156.301 187.1 33.199 94 0zM63.484 34.553L81.018 34.553 70.082 57.031 49.551 52.984 63.484 34.553zM81.914 34.553L104.244 34.553 113.891 61.799 99.377 99.658 103.719 128.395 82.146 128.395 87.037 99.617 72.479 61.799 81.914 34.553zM105.299 34.553L122.824 34.553 136.76 52.984 116.238 57.031 105.299 34.553zM36.674 52.984L68.881 59.428 83.418 94.035 42.818 78.902 36.674 52.984zM149.955 52.984L143.803 78.902 103.199 94.035 117.729 59.428 149.955 52.984zM43.641 81.898L52.775 85.645 52.775 97.855 67.008 105.502 67.008 135.691 43.641 115.689 43.641 81.898zM142.535 81.898L142.535 115.689 119.152 135.691 119.152 105.502 133.389 97.855 133.389 85.645 142.535 81.898zM77.859 94.563L83.17 97.334 83.17 102.547 79.838 130.244 86.975 137.494 93.189 137.543 99.395 137.494 106.529 130.244 103.199 102.547 103.199 97.334 108.52 94.563 115.85 106.928 115.85 151.818 108.27 144.852 93.189 144.689 78.104 144.852 70.506 151.818 70.506 106.928 77.859 94.563zM54.043 129.4L67.008 137.865 67.008 153.6 54.043 139.219 54.043 129.4zM131.74 129.4L131.74 139.219 118.787 153.6 118.787 137.865 131.74 129.4zM79.602 147.984L106.865 147.984 115.85 157.109 112.039 159.129 106.639 151.818 79.729 151.818 74.391 159.129 70.506 157.109 79.602 147.984zM83.186 153.6L103.049 153.6 110.225 160.754 103.049 167.91 83.186 167.91 76.23 160.754 83.186 153.6z" id="Shape" fill="#FFFFFF"/>
</svg>